<svg xmlns="http://www.w3.org/2000/svg" aria-hidden="true" style="position:absolute;width:0;height:0;overflow:hidden">
  <defs>
    <symbol id="icon-AirConditioner" viewBox="0 0 32 32">
      <path stroke-linecap="round" stroke-linejoin="round" stroke-width="2.4" d="M28.571 1.143H3.428a2.287 2.287 0 0 0-2.285 2.285v11.429a2.287 2.287 0 0 0 2.285 2.285h25.143a2.287 2.287 0 0 0 2.286-2.285V3.428a2.283 2.283 0 0 0-2.286-2.285z"/>
      <path stroke-linecap="round" stroke-linejoin="round" stroke-width="2.4" d="M25.143 17.143v-4.571a2.283 2.283 0 0 0-2.286-2.285H9.143a2.287 2.287 0 0 0-2.285 2.285v4.571M5.714 28.572h.229a3.2 3.2 0 0 0 3.2-3.2v-2.514m17.143 5.714h-.229a3.2 3.2 0 0 1-3.2-3.2v-2.514M16 30.857v-8"/>
    </symbol>
    <symbol id="icon-Alcove" viewBox="0 0 46 32">
      <path d="M2.608 1.8h12.41a.393.393 0 0 0 .277-.113L16.487.526A1.84 1.84 0 0 1 17.777 0H36.613c.894 0 1.683.446 2.158 1.127l.006.009 2.255 3.301c.32.469.35 1.067.078 1.563a1.57 1.57 0 0 1-1.368.805h-9.707v.957H35.023a3.28 3.28 0 0 1 2.988 1.925l.008.021 2.909 6.649 2.549.994c1.36.531 2.239 1.798 2.239 3.227v6.158c0 .919-.766 1.666-1.707 1.666h-2.965c-.344 2.038-2.162 3.599-4.35 3.599s-4.007-1.561-4.35-3.6H16.141c-.345 2.04-2.165 3.6-4.351 3.6-2.185 0-4.005-1.561-4.35-3.6H1.52c-.839 0-1.519-.663-1.519-1.479V4.344C.001 2.941 1.17 1.8 2.609 1.8zm34.085 28.794c1.637 0 2.969-1.299 2.969-2.897 0-1.597-1.333-2.896-2.969-2.896-1.638 0-2.969 1.299-2.969 2.896 0 1.598 1.331 2.897 2.969 2.897zm-6.659-3.6h2.307l.019-.104.014-.071c.011-.055.025-.11.039-.165l.009-.034a2.842 2.842 0 0 1 .075-.25c.034-.102.059-.171.086-.238l-.011.032.047-.114.034-.075.049-.109.038-.075.055-.103.04-.074.059-.101.043-.071.066-.101.045-.065c.025-.035.05-.071.078-.105l.04-.055a5.31 5.31 0 0 1 .261-.308l-.003.004.042-.043.096-.099.057-.053c.075-.072.153-.142.234-.209l.007-.005.066-.051c.042-.034.094-.074.148-.113l.013-.009.097-.067.069-.046c.034-.023.069-.043.104-.065l.069-.041c.038-.023.077-.043.115-.065l.059-.034c.025-.015.081-.043.137-.069l.032-.014.013-.006c.062-.03.123-.057.186-.082.019-.009.041-.016.061-.024l.13-.05.074-.026a4.08 4.08 0 0 1 .493-.138l.03-.006.087-.018c.087-.018.201-.036.317-.049l.019-.002.082-.009.143-.011c.023 0 .047-.003.071-.003a3.612 3.612 0 0 1 .442 0h-.01c.023 0 .046.002.071.005.047.002.095.006.143.011.027.001.055.006.082.008.164.018.308.042.449.074l-.026-.005c.208.044.383.093.554.153l-.03-.009.074.026.13.05.061.023c.063.026.126.054.186.083l.013.006c.057.027.113.055.168.085l.059.033c.04.021.079.042.117.065l.069.041.103.065.07.046.097.069c.064.045.116.085.167.126l-.006-.005.066.051c.089.075.167.145.244.218l-.003-.003.057.053.096.099.042.043c.046.048.089.098.131.149l.017.021c.037.045.073.088.109.135l.04.055.078.105.045.065.066.101.043.071.058.101.041.074.055.103.038.075c.017.037.034.072.049.109l.034.074c.02.043.045.105.068.168l.006.02.047.134.019.057c.019.064.039.128.057.194l.008.034c.014.054.026.109.038.163l.015.071.019.104h2.966a.263.263 0 0 0 .263-.259v-2.946h-1.125v-1.406h1.125v-1.806a2.06 2.06 0 0 0-1.334-1.922l-2.697-1.051H30.031V27zm0-10.797h9.257l-2.598-5.939a1.843 1.843 0 0 0-1.68-1.09h-4.979v7.03zM11.789 30.594c1.638 0 2.969-1.299 2.969-2.897 0-1.597-1.331-2.896-2.969-2.896-.051 0-.102.001-.152.005-1.365.067-2.488 1.038-2.757 2.309a2.897 2.897 0 0 0-.056.426v.008a2.73 2.73 0 0 0-.003.133v.016-.001c0 1.598 1.331 2.897 2.968 2.897zM1.441 22.383h1.125v1.406H1.44v3.131c0 .041.034.074.077.074h5.92l.021-.103c.005-.024.008-.049.014-.073.011-.054.023-.107.038-.16l.009-.038c.017-.065.037-.129.057-.194l.019-.057.046-.133.029-.072c.041-.106.068-.169.096-.231l-.016.04.049-.106c.011-.026.025-.051.039-.077l.053-.103.042-.074c.081-.139.151-.249.225-.356l-.013.019.077-.104.042-.057c.034-.045.069-.088.106-.131l.018-.023c.043-.05.087-.101.131-.149l.043-.046.096-.097.057-.054.088-.083.063-.054.09-.075.066-.054c.039-.032.092-.071.144-.11l.016-.011c.032-.023.064-.046.097-.066l.069-.047.103-.065.069-.041.117-.065.061-.034c.055-.029.111-.056.167-.082.005-.002.009-.006.015-.007.061-.03.123-.057.185-.082l.191-.074.075-.026c.012-.005.052-.019.092-.031l.028-.008c.101-.033.236-.069.374-.099l.03-.005.086-.019c.087-.018.201-.036.317-.049l.019-.002.082-.009.144-.011c.023 0 .046-.003.07-.003a3.612 3.612 0 0 1 .442 0h-.01c.024 0 .047.002.071.005.048.002.096.006.143.011.027.001.055.006.082.008a4.1 4.1 0 0 1 .239.033l-.024-.003.121.021.087.018c.138.029.246.056.352.088l-.031-.008.082.025c.04.011.08.025.119.039l.075.026.13.05.061.023c.153.064.274.122.391.186l-.024-.012.061.033.117.065.069.041.103.065.07.046.096.069c.062.043.114.083.165.124l-.005-.004.067.054c.031.024.061.05.09.075l.062.054.146.137.096.098.042.046c.085.092.169.191.249.293l.008.01.041.055c.026.034.053.07.077.105l.045.066c.051.073.107.161.159.252l.01.019.041.074.054.103.038.075.05.109.033.074c.017.039.032.078.047.117l.027.071c.017.045.032.089.047.135l.019.055c.021.064.039.13.057.194l.007.032c.015.055.027.111.04.167l.013.069.022.106h12.453V6.106c0-.389.322-.704.72-.704h10.419c.017 0 .072 0 .106-.063a.104.104 0 0 0-.007-.12L37.579 1.92a1.183 1.183 0 0 0-.972-.511H17.784a.393.393 0 0 0-.277.113l-1.192 1.162a1.84 1.84 0 0 1-1.289.525H2.596c-.632 0-1.145.508-1.154 1.137v18.04z"/>
      <path d="M20.115 7.198h4.559c.92 0 1.67.731 1.67 1.63v15.046a.71.71 0 0 1-.72.703h-6.465a.712.712 0 0 1-.712-.702V8.829c0-.899.747-1.63 1.669-1.63zm-.228 15.971h5.016v-8.266h-5.017v8.266zm0-9.672h5.016V8.826a.226.226 0 0 0-.226-.224H20.115a.227.227 0 0 0-.229.224v4.669h.001zM5.536 7.198h8.814c1.019 0 1.848.809 1.848 1.802v4.101c0 .994-.83 1.802-1.848 1.802H5.535c-1.018 0-1.847-.808-1.847-1.802V9c0-.994.829-1.802 1.848-1.802zm-.407 5.903c0 .217.183.397.407.397h8.819c.22 0 .399-.177.402-.396V9.001a.403.403 0 0 0-.407-.397H5.532A.402.402 0 0 0 5.13 9v4.101z"/>
    </symbol>
    <symbol id="icon-beds" viewBox="0 0 32 32">
      <path stroke-linecap="round" stroke-linejoin="round" stroke-width="2.24" d="M3 26v-7a4.01 4.01 0 0 1 3.999-4H25a4.01 4.01 0 0 1 4 3.999V26m-5-11H6V8.499A2.507 2.507 0 0 1 8.5 6h15a2.507 2.507 0 0 1 2.499 2.5V15h-2z"/>
      <path stroke-linecap="round" stroke-linejoin="round" stroke-width="2.24" d="M3 26v-.501A1.504 1.504 0 0 1 4.501 24H27.5a1.505 1.505 0 0 1 1.501 1.501V26M7 15v-1a2.007 2.007 0 0 1 2-2h5a2.007 2.007 0 0 1 2 2m0 0v1m0-1a2.006 2.006 0 0 1 2-2h5a2.007 2.007 0 0 1 2 2v1"/>
    </symbol>
    <symbol id="icon-calendar" viewBox="0 0 32 32">
      <path stroke-linecap="round" stroke-linejoin="round" stroke-width="2.4" d="M25.333 5.333H6.667A2.668 2.668 0 0 0 4 8v18.667a2.667 2.667 0 0 0 2.667 2.666h18.666A2.667 2.667 0 0 0 28 26.667V8a2.668 2.668 0 0 0-2.667-2.667zm-4-2.666V8M10.667 2.667V8M4 13.333h24"/>
    </symbol>
    <symbol id="icon-CD" viewBox="0 0 32 32">
      <path stroke-width="2.4" d="M16 28c6.627 0 12-5.373 12-12S22.627 4 16 4 4 9.373 4 16s5.373 12 12 12z"/>
      <path stroke-linecap="round" stroke-width="2.4" d="M8.667 16A7.333 7.333 0 0 1 16 8.667"/>
      <path stroke-width="2.4" d="M16 19.333a3.333 3.333 0 1 0 0-6.666 3.333 3.333 0 1 0 0 6.666z"/>
    </symbol>
    <symbol id="icon-engine" viewBox="0 0 32 32">
      <path d="m26.36 9.64.013-.013-4.96-4.96L20 6.08l2.813 2.813a3.33 3.33 0 0 0-2.148 3.109c0 .92.374 1.753.979 2.355a3.335 3.335 0 0 0 3.711.688l-.021.008v9.614a1.333 1.333 0 0 1-2.666 0v-6.002a2.666 2.666 0 0 0-2.666-2.666h-1.335V6.666A2.667 2.667 0 0 0 16 3.999H8a2.667 2.667 0 0 0-2.667 2.667v21.333h13.334v-10h2v6.667a3.333 3.333 0 1 0 6.666 0V11.999c0-.92-.373-1.76-.973-2.36zM16 18v7.333H8V16h8v2zm0-4.667H8V6.667h8v6.666zm8 0a1.333 1.333 0 0 1 0-2.666 1.333 1.333 0 0 1 0 2.666z"/>
    </symbol>
    <symbol id="icon-Freezer" viewBox="0 0 32 32">
      <path stroke-linecap="round" stroke-linejoin="round" stroke-width="2.08" d="M23.4 3H8.606a2 2 0 0 0-2 2v20.387a2 2 0 0 0 2 2H23.4a2 2 0 0 0 2-2V5a2 2 0 0 0-2-2z"/>
      <path stroke-linecap="round" stroke-linejoin="round" stroke-width="2.08" d="M6.608 13.126h18.784m-15.078-2.56V6.528m0 12.914V15.4M8.426 27.387v.701c0 .502.406.909.907.912h1.648a.912.912 0 0 0 .912-.912v-.701m8.208 0v.701c0 .504.408.912.912.912h1.654a.912.912 0 0 0 .912-.912v-.701"/>
    </symbol>
    <symbol id="icon-Fully" viewBox="0 0 46 32">
      <path d="M2.608 1.8h12.41a.393.393 0 0 0 .277-.113L16.487.526A1.84 1.84 0 0 1 17.777 0H36.613c.894 0 1.683.446 2.158 1.127l.006.009 2.255 3.301c.32.469.35 1.067.078 1.563a1.57 1.57 0 0 1-1.368.805h-9.707v.957H35.023a3.28 3.28 0 0 1 2.988 1.925l.008.021 2.909 6.649 2.549.994c1.36.531 2.239 1.798 2.239 3.227v6.158c0 .919-.766 1.666-1.707 1.666h-2.965c-.344 2.038-2.162 3.599-4.35 3.599s-4.007-1.561-4.35-3.6H16.141c-.345 2.04-2.165 3.6-4.351 3.6-2.185 0-4.005-1.561-4.35-3.6H1.52c-.839 0-1.519-.663-1.519-1.479V4.344C.001 2.941 1.17 1.8 2.609 1.8zm34.085 28.794c1.637 0 2.969-1.299 2.969-2.897 0-1.597-1.333-2.896-2.969-2.896-1.638 0-2.969 1.299-2.969 2.896 0 1.598 1.331 2.897 2.969 2.897zm-6.659-3.6h2.307l.019-.104.014-.071c.011-.055.025-.11.039-.165l.009-.034a2.842 2.842 0 0 1 .075-.25c.034-.102.059-.171.086-.238l-.011.032.047-.114.034-.075.049-.109.038-.075.055-.103.04-.074.059-.101.043-.071.066-.101.045-.065c.025-.035.05-.071.078-.105l.04-.055a5.31 5.31 0 0 1 .261-.308l-.003.004.042-.043.096-.099.057-.053c.075-.072.153-.142.234-.209l.007-.005.066-.051c.042-.034.094-.074.148-.113l.013-.009.097-.067.069-.046c.034-.023.069-.043.104-.065l.069-.041c.038-.023.077-.043.115-.065l.059-.034c.025-.015.081-.043.137-.069l.032-.014.013-.006c.062-.03.123-.057.186-.082.019-.009.041-.016.061-.024l.13-.05.074-.026a4.08 4.08 0 0 1 .493-.138l.03-.006.087-.018c.087-.018.201-.036.317-.049l.019-.002.082-.009.143-.011c.023 0 .047-.003.071-.003a3.612 3.612 0 0 1 .442 0h-.01c.023 0 .046.002.071.005.047.002.095.006.143.011.027.001.055.006.082.008.164.018.308.042.449.074l-.026-.005c.208.044.383.093.554.153l-.03-.009.074.026.13.05.061.023c.063.026.126.054.186.083l.013.006c.057.027.113.055.168.085l.059.033c.04.021.079.042.117.065l.069.041.103.065.07.046.097.069c.064.045.116.085.167.126l-.006-.005.066.051c.089.075.167.145.244.218l-.003-.003.057.053.096.099.042.043c.046.048.089.098.131.149l.017.021c.037.045.073.088.109.135l.04.055.078.105.045.065.066.101.043.071.058.101.041.074.055.103.038.075c.017.037.034.072.049.109l.034.074c.02.043.045.105.068.168l.006.02.047.134.019.057c.019.064.039.128.057.194l.008.034c.014.054.026.109.038.163l.015.071.019.104h2.966a.263.263 0 0 0 .263-.259v-2.946h-1.125v-1.406h1.125v-1.806a2.06 2.06 0 0 0-1.334-1.922l-2.697-1.051H30.031V27zm0-10.797h9.257l-2.598-5.939a1.843 1.843 0 0 0-1.68-1.09h-4.979v7.03zM11.789 30.594c1.638 0 2.969-1.299 2.969-2.897 0-1.597-1.331-2.896-2.969-2.896-.051 0-.102.001-.152.005-1.365.067-2.488 1.038-2.757 2.309a2.897 2.897 0 0 0-.056.426v.008a2.73 2.73 0 0 0-.003.133v.016-.001c0 1.598 1.331 2.897 2.968 2.897zM1.441 22.383h1.125v1.406H1.44v3.131c0 .041.034.074.077.074h5.92l.021-.103c.005-.024.008-.049.014-.073.011-.054.023-.107.038-.16l.009-.038c.017-.065.037-.129.057-.194l.019-.057.046-.133.029-.072c.041-.106.068-.169.096-.231l-.016.04.049-.106c.011-.026.025-.051.039-.077l.053-.103.042-.074c.081-.139.151-.249.225-.356l-.013.019.077-.104.042-.057c.034-.045.069-.088.106-.131l.018-.023c.043-.05.087-.101.131-.149l.043-.046.096-.097.057-.054.088-.083.063-.054.09-.075.066-.054c.039-.032.092-.071.144-.11l.016-.011c.032-.023.064-.046.097-.066l.069-.047.103-.065.069-.041.117-.065.061-.034c.055-.029.111-.056.167-.082.005-.002.009-.006.015-.007.061-.03.123-.057.185-.082l.191-.074.075-.026c.012-.005.052-.019.092-.031l.028-.008c.101-.033.236-.069.374-.099l.03-.005.086-.019c.087-.018.201-.036.317-.049l.019-.002.082-.009.144-.011c.023 0 .046-.003.07-.003a3.612 3.612 0 0 1 .442 0h-.01c.024 0 .047.002.071.005.048.002.096.006.143.011.027.001.055.006.082.008a4.1 4.1 0 0 1 .239.033l-.024-.003.121.021.087.018c.138.029.246.056.352.088l-.031-.008.082.025c.04.011.08.025.119.039l.075.026.13.05.061.023c.153.064.274.122.391.186l-.024-.012.061.033.117.065.069.041.103.065.07.046.096.069c.062.043.114.083.165.124l-.005-.004.067.054c.031.024.061.05.09.075l.062.054.146.137.096.098.042.046c.085.092.169.191.249.293l.008.01.041.055c.026.034.053.07.077.105l.045.066c.051.073.107.161.159.252l.01.019.041.074.054.103.038.075.05.109.033.074c.017.039.032.078.047.117l.027.071c.017.045.032.089.047.135l.019.055c.021.064.039.13.057.194l.007.032c.015.055.027.111.04.167l.013.069.022.106h12.453V6.106c0-.389.322-.704.72-.704h10.419c.017 0 .072 0 .106-.063a.104.104 0 0 0-.007-.12L37.579 1.92a1.183 1.183 0 0 0-.972-.511H17.784a.393.393 0 0 0-.277.113l-1.192 1.162a1.84 1.84 0 0 1-1.289.525H2.596c-.632 0-1.145.508-1.154 1.137v18.04z"/>
      <path d="M20.115 7.198h4.559c.92 0 1.67.731 1.67 1.63v15.046a.71.71 0 0 1-.72.703h-6.465a.712.712 0 0 1-.712-.702V8.829c0-.899.747-1.63 1.669-1.63zm-.228 15.971h5.016v-8.266h-5.017v8.266zm0-9.672h5.016V8.826a.226.226 0 0 0-.226-.224H20.115a.227.227 0 0 0-.229.224l.001 4.669z"/>
    </symbol>
    <symbol id="icon-Gas" viewBox="0 0 32 32">
      <path d="M25.072 13.992c-.368-.454-.816-.848-1.232-1.24-1.072-.906-2.288-1.557-3.312-2.509-2.384-2.206-2.912-5.848-1.392-8.643-1.52.347-2.848 1.133-3.982 1.995-4.144 3.142-5.776 8.688-3.824 13.448.064.152.128.304.128.499 0 .333-.24.635-.56.755-.368.152-.752.061-1.056-.181a.89.89 0 0 1-.222-.252l-.002-.004c-1.808-2.162-2.096-5.259-.88-7.738-2.67 2.054-4.126 5.531-3.918 8.81.096.755.192 1.512.464 2.267.224.906.656 1.813 1.136 2.614 1.728 2.614 4.72 4.488 7.936 4.864 3.422.41 7.085-.179 9.709-2.416 2.928-2.509 3.952-6.528 2.448-9.974l-.208-.392c-.336-.696-1.232-1.904-1.232-1.904zm-5.056 9.52c-.448.362-1.184.755-1.76.906-1.792.605-3.582-.24-4.638-1.238 1.904-.422 3.04-1.752 3.376-3.098.272-1.21-.24-2.206-.448-3.37-.192-1.12-.16-2.07.272-3.114.304.574.624 1.149 1.008 1.602 1.232 1.512 3.168 2.176 3.584 4.232a2.2 2.2 0 0 1 .096.65c.048 1.238-.528 2.598-1.488 3.43z"/>
    </symbol>
    <symbol id="icon-hart" viewBox="0 0 32 32">
      <path stroke-linecap="round" stroke-linejoin="round" stroke-width="3.067" d="M27.787 6.147C26.46 4.819 24.626 3.998 22.6 3.998s-3.859.821-5.187 2.149L16 7.56l-1.413-1.413A7.335 7.335 0 0 0 4.213 16.521L16 28.308l11.787-11.787c1.328-1.327 2.149-3.161 2.149-5.187s-.821-3.859-2.149-5.187z"/>
    </symbol>
    <symbol id="icon-hart_red" viewBox="0 0 32 32">
      <path fill="#e44848" stroke="#e44848" stroke-linecap="round" stroke-linejoin="round" stroke-width="3.067" d="M27.787 6.147a7.326 7.326 0 0 0-10.373 0L16.001 7.56l-1.413-1.413a7.333 7.333 0 0 0-10.374 0 7.333 7.333 0 0 0 0 10.374l11.787 11.787 11.787-11.787a7.345 7.345 0 0 0 2.15-5.187 7.33 7.33 0 0 0-2.15-5.187z" style="fill:var(--color1, #e44848);stroke:var(--color1, #e44848)"/>
    </symbol>
    <symbol id="icon-hob" viewBox="0 0 32 32">
      <path fill="none" stroke="#101828" stroke-width="2.4" d="M12 6.667h16c.736 0 1.333.597 1.333 1.333V25.335c0 .736-.597 1.333-1.333 1.333H12m0-20.001H4c-.736 0-1.333.597-1.333 1.333V25.335c0 .736.597 1.333 1.333 1.333h8m0-20.001v20" style="stroke:var(--color2, #101828)"/>
      <path fill="none" stroke="#101828" stroke-linecap="round" stroke-linejoin="round" stroke-width="2.4" d="M7.333 11.333V14m17.334-3.333-8 11.333" style="stroke:var(--color2, #101828)"/>
      <path d="M8.667 18a1.334 1.334 0 1 0-2.668 0 1.334 1.334 0 1 0 2.668 0zm0 4a1.334 1.334 0 1 0-2.668 0 1.334 1.334 0 1 0 2.668 0z"/>
    </symbol>
    <symbol id="icon-kitchen" viewBox="0 0 32 32">
      <path stroke-linecap="round" stroke-linejoin="round" stroke-width="1.746" d="M25.051 19.879V4.364c-6.227 5.94-6.494 10.756-6.465 15.515h6.465zm0 0v7.758h-1.293v-3.879M10.828 5.657v21.98M6.95 5.657v3.879a3.882 3.882 0 0 0 3.879 3.879 3.882 3.882 0 0 0 3.879-3.879V5.657"/>
    </symbol>
    <symbol id="icon-lene_red" viewBox="0 0 453 32">
      <path fill="none" stroke="#e44848" stroke-width="26.667" d="M0 16h453.333" style="stroke:var(--color1, #e44848)"/>
    </symbol>
    <symbol id="icon-line" viewBox="0 0 14432 32">
      <path stroke-width="16" d="M0 16h14432"/>
    </symbol>
    <symbol id="icon-line_small" viewBox="0 0 5760 32">
      <path stroke-width="16" d="M0 16h5760"/>
    </symbol>
    <symbol id="icon-Map" viewBox="0 0 29 32">
      <path stroke-linecap="round" stroke-linejoin="round" stroke-width="2.4" d="M26.4 13.333c0 9.334-12 17.334-12 17.334s-12-8-12-17.334c0-6.627 5.373-12 12-12s12 5.373 12 12z"/>
      <path stroke-linecap="round" stroke-linejoin="round" stroke-width="2.4" d="M14.4 17.333a4 4 0 0 0 0-8 4 4 0 0 0 0 8z"/>
    </symbol>
    <symbol id="icon-Microwave" viewBox="0 0 32 32">
      <path stroke-linecap="round" stroke-linejoin="round" stroke-width="2.24" d="M29.714 5.714H2.286c-.631 0-1.142.511-1.142 1.142V25.145c0 .631.511 1.142 1.142 1.142H29.714c.631 0 1.142-.511 1.142-1.142V6.858c0-.632-.512-1.144-1.144-1.144z"/>
      <path stroke-linecap="round" stroke-linejoin="round" stroke-width="2.24" d="M25.142 11.429h1.144M25.142 16h1.144m-6.857-5.714H6.856c-.631 0-1.142.511-1.142 1.142v9.142a1.144 1.144 0 0 0 1.144 1.142h12.571c.631 0 1.142-.511 1.142-1.142v-9.142c0-.631-.511-1.142-1.142-1.142z"/>
    </symbol>
    <symbol id="icon-Radio" viewBox="0 0 32 32">
      <path stroke-width="2.08" d="M2.667 18.667c0-5.029 0-7.544 1.562-9.104C5.792 8 8.306 8 13.333 8h5.334c5.027 0 7.542 0 9.104 1.563 1.562 1.56 1.562 4.075 1.562 9.104 0 5.027 0 7.542-1.562 9.104s-4.077 1.562-9.104 1.562h-5.334c-5.027 0-7.542 0-9.104-1.562s-1.562-4.077-1.562-9.104z"/>
      <path stroke-width="2.08" d="M6.667 14.667A2.667 2.667 0 0 1 9.333 12h13.335a2.666 2.666 0 1 1 0 5.332H9.334a2.668 2.668 0 0 1-2.666-2.665zm5.333 8a2 2 0 1 1-4 0 2 2 0 1 1 4 0z"/>
      <path stroke-linecap="round" stroke-width="2.08" d="M20 15.333v2m-2.667 5.334H24M8.667 8 20 2.667"/>
    </symbol>
    <symbol id="icon-route" viewBox="0 0 32 32">
      <path d="m6.667 4-.065-.001a2.667 2.667 0 1 0 0 5.334l.069-.001h-.003A2.668 2.668 0 0 0 6.672 4h-.003zM1.333 6.667a5.334 5.334 0 1 1 10.668 0 5.334 5.334 0 1 1-10.668 0zm24 16-.065-.001a2.667 2.667 0 1 0 0 5.334l.069-.001h-.003a2.668 2.668 0 0 0 .003-5.332h-.003zM20 25.333a5.334 5.334 0 1 1 10.668 0 5.334 5.334 0 1 1-10.668 0z"/>
      <path d="M13.333 6.667c0-.736.597-1.334 1.334-1.334h8.4c4.13 0 5.619 5.405 1.987 7.429L9.582 21.567a1.296 1.296 0 0 0 .618 2.435l.069-.002h-.003 7.066a1.334 1.334 0 1 1 0 2.668h-7.064c-4.131 0-5.619-5.405-1.987-7.429l15.472-8.805a1.296 1.296 0 0 0-.618-2.435l-.07.002h.003H14.666a1.333 1.333 0 0 1-1.333-1.333z"/>
    </symbol>
    <symbol id="icon-shower" viewBox="0 0 32 32">
      <path stroke-linecap="round" stroke-linejoin="round" stroke-width="2" d="m5.333 5.333 3.334 3.334m9.333 0a6.6 6.6 0 0 0-9.332 9.334L8.667 18M20 6.667 6.667 20m12 2.667v.013m-5.334-1.347v.014m4-4.014v.014m4-4.014v.014m-6.666 13.32v.013m8-8.013v.013m4-4.013v.013"/>
    </symbol>
    <symbol id="icon-star" viewBox="0 0 32 32">
      <path fill="#ffc531" stroke="#ffc531" stroke-width="2.4" d="M12.4 9.394 16 2.572l3.6 6.822a2.2 2.2 0 0 0 1.571 1.141l7.601 1.315-5.376 5.532a2.2 2.2 0 0 0-.6 1.846l1.098 7.635-6.922-3.404a2.199 2.199 0 0 0-1.941 0l-6.922 3.404 1.098-7.635a2.2 2.2 0 0 0-.6-1.846L3.231 11.85l7.601-1.315a2.202 2.202 0 0 0 1.571-1.141z" style="fill:var(--color3, #ffc531);stroke:var(--color3, #ffc531)"/>
    </symbol>
    <symbol id="icon-star_gray" viewBox="0 0 32 32">
      <path fill="#f2f4f7" stroke="#f2f4f7" stroke-width="2.4" d="M12.4 9.394 16 2.572l3.6 6.822a2.2 2.2 0 0 0 1.571 1.141l7.601 1.315-5.376 5.532a2.2 2.2 0 0 0-.6 1.846l1.098 7.635-6.922-3.404a2.199 2.199 0 0 0-1.941 0l-6.922 3.404 1.098-7.635a2.2 2.2 0 0 0-.6-1.846L3.231 11.85l7.601-1.315a2.202 2.202 0 0 0 1.571-1.141z" style="fill:var(--color4, #f2f4f7);stroke:var(--color4, #f2f4f7)"/>
    </symbol>
    <symbol id="icon-Toilet" viewBox="0 0 32 32">
      <path d="M24 4c1.939 0 3.269 1.648 4.04 3.312.762 1.654 1.224 3.811 1.286 6.147l.006.541v12.67c0 .735-.596 1.331-1.331 1.331L27.944 28h.003l-.166-.019L24 27.352l-3.781.629a1.357 1.357 0 0 1-.492-.01l.009.002-.157-.042L16 26.739l-3.579 1.192a1.334 1.334 0 0 1-1.744-1.099l-.001-.006-.01-.16v-3.902c-.709.734-1.595 1.237-2.667 1.237-1.939 0-3.269-1.648-4.04-3.312-.819-1.781-1.293-4.147-1.293-6.688s.472-4.907 1.293-6.688c.736-1.59 1.981-3.163 3.779-3.301l.261-.011h16zm0 2.667H11.709c.12.213.23.429.33.646.821 1.779 1.296 4.144 1.296 6.686v10.816l2.245-.747a1.328 1.328 0 0 1 .851.003l-.009-.003 3.688 1.229 3.672-.613a1.419 1.419 0 0 1 .446.001l-.008-.001 2.448.408V13.999c0-2.245-.424-4.213-1.05-5.568-.677-1.472-1.347-1.765-1.618-1.765zm-16 0c-.272 0-.941.293-1.616 1.763-.629 1.357-1.051 3.325-1.051 5.57s.422 4.213 1.05 5.568c.677 1.472 1.347 1.765 1.618 1.765.272 0 .939-.293 1.616-1.763.627-1.357 1.051-3.325 1.051-5.57s-.424-4.213-1.05-5.568C8.94 6.96 8.271 6.666 8 6.666zm0 4.666c.736 0 1.333 1.194 1.333 2.667 0 1.472-.597 2.667-1.333 2.667S6.667 15.473 6.667 14c0-1.472.597-2.667 1.333-2.667z"/>
    </symbol>
    <symbol id="icon-transmission" viewBox="0 0 32 32">
      <path stroke-linecap="round" stroke-linejoin="round" stroke-width="1.746" d="M22.465 14.707h1.939a1.937 1.937 0 0 0 1.939-1.939 1.937 1.937 0 0 0-1.939-1.939h-1.939v6.465m0 5.171v5.172h1.293a2.588 2.588 0 0 0 2.585-2.586 2.588 2.588 0 0 0-2.585-2.585h-1.293zM4.364 6.949a2.582 2.582 0 0 0 2.585 2.585 2.582 2.582 0 0 0 2.585-2.585 2.582 2.582 0 0 0-2.585-2.585 2.582 2.582 0 0 0-2.585 2.585zM6.95 9.535v3.879a1.295 1.295 0 0 0 1.293 1.293h3.879m-.001 0v9.05a1.295 1.295 0 0 0 1.293 1.293h3.879m-5.172-10.343h5.172"/>
    </symbol>
    <symbol id="icon-TV" viewBox="0 0 31 32">
      <path stroke-linecap="round" stroke-linejoin="round" stroke-width="1.746" d="M23.273 25.697H7.758a3.87 3.87 0 0 1-3.879-3.879v-9.697a3.87 3.87 0 0 1 3.879-3.879h15.515a3.87 3.87 0 0 1 3.879 3.879v9.697a3.87 3.87 0 0 1-3.879 3.879zM11.636 29.576h7.758M15.515 8.242l5.818-5.818M15.515 8.242 9.697 2.424"/>
    </symbol>
    <symbol id="icon-users" viewBox="0 0 32 32">
      <path d="M9.067 24.133h-4.4c-.267 0-.4-.133-.534-.266-.133-.134-.266-.4-.133-.667.8-2.267 2.8-3.6 5.067-3.6 2.8 0 5.066-2.4 5.066-5.2s-2.266-5.467-5.066-5.467S4 11.333 4 14.267c0 1.333.533 2.666 1.333 3.6-1.733.933-3.066 2.4-3.866 4.4a3.668 3.668 0 0 0 .54 3.078l-.008-.012c.667.934 1.6 1.467 2.667 1.467h4.4c.8 0 1.333-.533 1.333-1.333s-.533-1.334-1.333-1.334zm-2.4-9.866c0-1.467 1.066-2.534 2.4-2.534 1.333 0 2.4 1.2 2.4 2.534 0 1.466-1.067 2.533-2.4 2.533-1.334 0-2.4-1.2-2.4-2.533z"/>
      <path d="M30.533 21.467c-.914-2.407-2.658-4.325-4.875-5.441L25.601 16c1.2-1.067 1.867-2.667 1.867-4.533C27.468 8 24.801 5.2 21.601 5.2s-5.867 2.8-5.867 6.267A6.35 6.35 0 0 0 17.601 16c-2.274 1.142-4.019 3.06-4.91 5.399l-.023.069c-.667 1.2-.4 2.533.266 3.6.667 1.066 1.867 1.6 3.067 1.6h11.067c1.2 0 2.4-.667 3.066-1.6.8-1.067.934-2.4.4-3.6zM18.267 11.6c0-2 1.466-3.6 3.2-3.6 1.733 0 3.2 1.6 3.2 3.6s-1.467 3.6-3.2 3.6c-1.734 0-3.2-1.733-3.2-3.6zm9.6 12c-.134.133-.4.533-.8.533H16c-.533 0-.8-.4-.8-.533a1.13 1.13 0 0 1-.13-1.207l-.003.007c1.066-2.8 3.733-4.667 6.533-4.667s5.467 1.867 6.533 4.667c.134.533-.133 1.067-.266 1.2z"/>
    </symbol>
    <symbol id="icon-Van" viewBox="0 0 46 32">
      <path d="M2.608 1.8h12.41a.393.393 0 0 0 .277-.113L16.487.526A1.84 1.84 0 0 1 17.777 0H36.613c.894 0 1.683.446 2.158 1.127l.006.009 2.255 3.301c.32.469.35 1.067.078 1.563a1.57 1.57 0 0 1-1.368.805h-9.707v.957H35.023a3.28 3.28 0 0 1 2.988 1.925l.008.021 2.909 6.649 2.549.994c1.36.531 2.239 1.798 2.239 3.227v6.158c0 .919-.766 1.666-1.707 1.666h-2.965c-.344 2.038-2.162 3.599-4.35 3.599s-4.007-1.561-4.35-3.6H16.141c-.345 2.04-2.165 3.6-4.351 3.6-2.185 0-4.005-1.561-4.35-3.6H1.52c-.839 0-1.519-.663-1.519-1.479V4.344C.001 2.941 1.17 1.8 2.609 1.8zm34.085 28.794c1.637 0 2.969-1.299 2.969-2.897 0-1.597-1.333-2.896-2.969-2.896-1.638 0-2.969 1.299-2.969 2.896 0 1.598 1.331 2.897 2.969 2.897zm-6.659-3.6h2.307l.019-.104.014-.071c.011-.055.025-.11.039-.165l.009-.034a2.842 2.842 0 0 1 .075-.25c.034-.102.059-.171.086-.238l-.011.032.047-.114.034-.075.049-.109.038-.075.055-.103.04-.074.059-.101.043-.071.066-.101.045-.065c.025-.035.05-.071.078-.105l.04-.055a5.31 5.31 0 0 1 .261-.308l-.003.004.042-.043.096-.099.057-.053c.075-.072.153-.142.234-.209l.007-.005.066-.051c.042-.034.094-.074.148-.113l.013-.009.097-.067.069-.046c.034-.023.069-.043.104-.065l.069-.041c.038-.023.077-.043.115-.065l.059-.034c.025-.015.081-.043.137-.069l.032-.014.013-.006c.062-.03.123-.057.186-.082.019-.009.041-.016.061-.024l.13-.05.074-.026a4.08 4.08 0 0 1 .493-.138l.03-.006.087-.018c.087-.018.201-.036.317-.049l.019-.002.082-.009.143-.011c.023 0 .047-.003.071-.003a3.612 3.612 0 0 1 .442 0h-.01c.023 0 .046.002.071.005.047.002.095.006.143.011.027.001.055.006.082.008.164.018.308.042.449.074l-.026-.005c.208.044.383.093.554.153l-.03-.009.074.026.13.05.061.023c.063.026.126.054.186.083l.013.006c.057.027.113.055.168.085l.059.033c.04.021.079.042.117.065l.069.041.103.065.07.046.097.069c.064.045.116.085.167.126l-.006-.005.066.051c.089.075.167.145.244.218l-.003-.003.057.053.096.099.042.043c.046.048.089.098.131.149l.017.021c.037.045.073.088.109.135l.04.055.078.105.045.065.066.101.043.071.058.101.041.074.055.103.038.075c.017.037.034.072.049.109l.034.074c.02.043.045.105.068.168l.006.02.047.134.019.057c.019.064.039.128.057.194l.008.034c.014.054.026.109.038.163l.015.071.019.104h2.966a.263.263 0 0 0 .263-.259v-2.946h-1.125v-1.406h1.125v-1.806a2.06 2.06 0 0 0-1.334-1.922l-2.697-1.051H30.031V27zm0-10.797h9.257l-2.598-5.939a1.843 1.843 0 0 0-1.68-1.09h-4.979v7.03zM11.789 30.594c1.638 0 2.969-1.299 2.969-2.897 0-1.597-1.331-2.896-2.969-2.896-.051 0-.102.001-.152.005-1.365.067-2.488 1.038-2.757 2.309a2.897 2.897 0 0 0-.056.426v.008a2.73 2.73 0 0 0-.003.133v.016-.001c0 1.598 1.331 2.897 2.968 2.897zM1.441 22.383h1.125v1.406H1.44v3.131c0 .041.034.074.077.074h5.92l.021-.103c.005-.024.008-.049.014-.073.011-.054.023-.107.038-.16l.009-.038c.017-.065.037-.129.057-.194l.019-.057.046-.133.029-.072c.041-.106.068-.169.096-.231l-.016.04.049-.106c.011-.026.025-.051.039-.077l.053-.103.042-.074c.081-.139.151-.249.225-.356l-.013.019.077-.104.042-.057c.034-.045.069-.088.106-.131l.018-.023c.043-.05.087-.101.131-.149l.043-.046.096-.097.057-.054.088-.083.063-.054.09-.075.066-.054c.039-.032.092-.071.144-.11l.016-.011c.032-.023.064-.046.097-.066l.069-.047.103-.065.069-.041.117-.065.061-.034c.055-.029.111-.056.167-.082.005-.002.009-.006.015-.007.061-.03.123-.057.185-.082l.191-.074.075-.026c.012-.005.052-.019.092-.031l.028-.008c.101-.033.236-.069.374-.099l.03-.005.086-.019c.087-.018.201-.036.317-.049l.019-.002.082-.009.144-.011c.023 0 .046-.003.07-.003a3.612 3.612 0 0 1 .442 0h-.01c.024 0 .047.002.071.005.048.002.096.006.143.011.027.001.055.006.082.008a4.1 4.1 0 0 1 .239.033l-.024-.003.121.021.087.018c.138.029.246.056.352.088l-.031-.008.082.025c.04.011.08.025.119.039l.075.026.13.05.061.023c.153.064.274.122.391.186l-.024-.012.061.033.117.065.069.041.103.065.07.046.096.069c.062.043.114.083.165.124l-.005-.004.067.054c.031.024.061.05.09.075l.062.054.146.137.096.098.042.046c.085.092.169.191.249.293l.008.01.041.055c.026.034.053.07.077.105l.045.066c.051.073.107.161.159.252l.01.019.041.074.054.103.038.075.05.109.033.074c.017.039.032.078.047.117l.027.071c.017.045.032.089.047.135l.019.055c.021.064.039.13.057.194l.007.032c.015.055.027.111.04.167l.013.069.022.106h12.453V6.106c0-.389.322-.704.72-.704h10.419c.017 0 .072 0 .106-.063a.104.104 0 0 0-.007-.12L37.579 1.92a1.183 1.183 0 0 0-.972-.511H17.784a.393.393 0 0 0-.277.113l-1.192 1.162a1.84 1.84 0 0 1-1.289.525H2.596c-.632 0-1.145.508-1.154 1.137v18.04z"/>
      <path d="M5.536 7.198h8.814c1.019 0 1.848.809 1.848 1.802v4.101c0 .994-.83 1.802-1.848 1.802H5.535c-1.018 0-1.847-.808-1.847-1.802V9c0-.994.829-1.802 1.848-1.802zm-.407 5.903c0 .217.183.397.407.397h8.819c.22 0 .399-.177.402-.396V9.001a.403.403 0 0 0-.407-.397H5.532A.402.402 0 0 0 5.13 9v4.101z"/>
    </symbol>
    <symbol id="icon-Water" viewBox="0 0 32 32">
      <path stroke-miterlimit="10" stroke-width="2.4" d="M25 20c0 5.523-3.477 9-9 9s-9-3.477-9-9c0-5.926 6.451-13.928 8.432-16.243a.75.75 0 0 1 1.137-.001l.001.001C18.549 6.072 25 14.074 25 20z"/>
      <path stroke-linecap="round" stroke-linejoin="round" stroke-width="2.4" d="M21.501 20.501A4.499 4.499 0 0 1 17.002 25H17"/>
    </symbol>
    <symbol id="icon-Air" viewBox="0 0 32 32">
<path d="M15.504 3.2c-1.501 0-2.956 0.513-4.117 1.45s-1.956 2.241-2.251 3.69l-0.116 0.575c-0.031 0.129-0.035 0.262-0.012 0.392s0.072 0.255 0.144 0.366c0.073 0.111 0.167 0.207 0.278 0.281s0.236 0.126 0.367 0.152c0.132 0.026 0.267 0.025 0.399-0.001s0.256-0.079 0.366-0.155c0.11-0.075 0.204-0.171 0.276-0.283s0.12-0.236 0.142-0.367l0.118-0.573c0.222-1.075 0.84-2.030 1.737-2.681s2.006-0.951 3.114-0.843c1.108 0.108 2.136 0.618 2.884 1.43s1.164 1.868 1.167 2.965c0 1.175-0.474 2.302-1.318 3.134s-1.988 1.298-3.182 1.299h-14.5c-0.265 0-0.52 0.104-0.707 0.288s-0.293 0.435-0.293 0.696c0 0.261 0.105 0.512 0.293 0.696s0.442 0.288 0.707 0.288h14.5c1.696-0.041 3.309-0.733 4.494-1.928s1.849-2.799 1.849-4.47-0.662-3.275-1.846-4.471c-1.184-1.196-2.796-1.889-4.492-1.931zM27 12.062c-1.326 0-2.598 0.519-3.536 1.442s-1.464 2.175-1.464 3.481c0 0.261 0.105 0.512 0.293 0.696s0.442 0.288 0.707 0.288 0.52-0.104 0.707-0.288c0.188-0.185 0.293-0.435 0.293-0.696 0-0.584 0.176-1.155 0.506-1.641s0.798-0.864 1.346-1.088c0.548-0.224 1.151-0.282 1.733-0.168s1.116 0.395 1.536 0.808c0.42 0.413 0.705 0.939 0.821 1.512s0.056 1.167-0.171 1.707c-0.227 0.54-0.612 1.001-1.105 1.326s-1.073 0.498-1.667 0.498h-26c-0.265 0-0.52 0.104-0.707 0.288s-0.293 0.435-0.293 0.696c0 0.261 0.105 0.512 0.293 0.696s0.442 0.288 0.707 0.288h19.5c0.663 0.001 1.298 0.262 1.766 0.724s0.73 1.089 0.729 1.742c-0.001 0.653-0.266 1.279-0.736 1.739s-1.106 0.719-1.769 0.717c-0.597 0-1.175-0.207-1.632-0.587s-0.762-0.905-0.862-1.485l-0.010-0.059c-0.018-0.131-0.062-0.256-0.131-0.37s-0.159-0.212-0.267-0.29-0.23-0.134-0.36-0.165c-0.13-0.031-0.265-0.036-0.397-0.014s-0.258 0.069-0.372 0.14c-0.113 0.071-0.211 0.163-0.287 0.271s-0.129 0.231-0.157 0.36c-0.027 0.129-0.028 0.262-0.002 0.392l0.010 0.059c0.178 1.040 0.724 1.984 1.542 2.664s1.854 1.054 2.924 1.054c1.195 0 2.341-0.466 3.186-1.297s1.322-1.958 1.324-3.134c0-0.912-0.28-1.759-0.758-2.462h2.758c1.326 0 2.598-0.519 3.536-1.442s1.464-2.176 1.464-3.481c0-1.306-0.527-2.558-1.464-3.481s-2.209-1.442-3.536-1.442z"></path>
<path d="M15.504 3.2l0.198-7.998-0.1-0.002-0.1 0 0.002 8zM9.136 8.34l-7.839-1.595-0.003 0.013 7.842 1.582zM9.020 8.915l7.78 1.865 0.034-0.141 0.029-0.142-7.842-1.582zM10.98 9.301l-7.836-1.614-0.030 0.147-0.025 0.148 7.891 1.318zM11.098 8.728v0zM20 9.598h8v-0.020l-8 0.020zM15.5 14.031v8h0.004l-0.004-8zM0 15.015v0zM15.5 16v8h0.096l0.096-0.002-0.193-7.998zM24 16.985v0zM0 20.923v0zM20.5 21.908l0.016-8h-0.016v8zM20.49 26.831l0.016-8h-0.021l0.006 8zM17.996 24.759l-7.888 1.335 0.002 0.013 0.002 0.013 7.883-1.362zM17.986 24.7l-7.925 1.091 0.017 0.123 0.021 0.122 7.888-1.335zM16.014 25.023l7.888-1.335-0.020-0.119-0.024-0.119-7.844 1.573zM16.024 25.082l-7.888 1.335 0.002 0.014 7.885-1.349zM20.49 28.8l0.004-8h-0.005l0.001 8zM25 24.369l8 0.014v-0.014h-8zM24.242 21.908v-8h-15.114l8.498 12.498 6.616-4.498zM15.502-4.8c-3.317 0.001-6.547 1.131-9.139 3.224l10.049 12.451c-0.271 0.219-0.592 0.325-0.906 0.325l-0.004-16zM6.363-1.576c-2.595 2.095-4.397 5.030-5.066 8.32l15.679 3.19c-0.080 0.392-0.29 0.719-0.564 0.94l-10.049-12.451zM1.294 6.758l-0.116 0.575 15.684 3.164 0.116-0.575-15.684-3.164zM1.24 7.050c-0.285 1.188-0.324 2.423-0.115 3.627l15.764-2.74c0.164 0.944 0.133 1.912-0.090 2.843l-15.559-3.73zM1.126 10.677c0.209 1.205 0.662 2.349 1.325 3.366l13.402-8.74c0.518 0.794 0.872 1.69 1.037 2.634l-15.764 2.74zM2.451 14.043c0.663 1.017 1.521 1.883 2.518 2.552l8.922-13.282c0.775 0.521 1.444 1.195 1.962 1.99l-13.402 8.74zM4.969 16.595c0.997 0.67 2.113 1.13 3.283 1.361l3.091-15.699c0.906 0.178 1.773 0.536 2.548 1.056l-8.922 13.282zM8.251 17.956c1.169 0.23 2.373 0.226 3.54-0.011l-3.192-15.678c0.905-0.184 1.837-0.187 2.743-0.009l-3.091 15.699zM11.792 17.944c1.168-0.238 2.282-0.706 3.274-1.382l-9.008-13.224c0.772-0.526 1.636-0.889 2.541-1.073l3.192 15.678zM15.066 16.562c0.993-0.676 1.845-1.548 2.502-2.569l-13.459-8.652c0.513-0.798 1.178-1.477 1.95-2.003l9.008 13.224zM17.568 13.993c0.656-1.021 1.101-2.169 1.303-3.375l-15.781-2.636c0.158-0.945 0.506-1.843 1.019-2.641l13.459 8.652zM18.816 10.914l0.118-0.573-15.671-3.227-0.118 0.573 15.671 3.227zM18.933 10.344c-0.185 0.898-0.696 1.667-1.396 2.175l-9.405-12.944c-2.492 1.81-4.241 4.489-4.869 7.537l15.67 3.233zM17.537 12.519c-0.696 0.506-1.539 0.728-2.367 0.647l1.557-15.924c-3.044-0.298-6.106 0.525-8.594 2.333l9.405 12.944zM15.17 13.166c-0.829-0.081-1.623-0.464-2.218-1.11l11.763-10.846c-2.092-2.269-4.942-3.671-7.988-3.969l-1.557 15.924zM12.951 12.056c-0.598-0.649-0.949-1.516-0.951-2.438l16-0.040c-0.008-3.115-1.19-6.095-3.286-8.368l-11.763 10.846zM12 9.598c0-0.986 0.399-1.907 1.068-2.566l11.228 11.399c2.357-2.322 3.704-5.496 3.704-8.833h-16zM13.068 7.032c0.665-0.655 1.541-1.001 2.428-1.002l0.007 16c3.275-0.001 6.44-1.282 8.793-3.6l-11.228-11.399zM15.5 6.031h-14.5v16h14.5v-16zM1 6.031c-2.347 0-4.623 0.917-6.32 2.588l11.226 11.401c-1.322 1.302-3.089 2.011-4.906 2.011v-16zM-5.32 8.619c-1.701 1.675-2.68 3.974-2.68 6.397h16c0 1.901-0.768 3.699-2.094 5.004l-11.226-11.401zM-8 15.015c0 2.423 0.979 4.722 2.68 6.397l11.226-11.401c1.326 1.306 2.094 3.103 2.094 5.004h-16zM-5.32 21.412c1.697 1.671 3.973 2.588 6.32 2.588v-16c1.817 0 3.584 0.709 4.906 2.011l-11.226 11.401zM1 24h14.5v-16h-14.5v16zM15.693 23.998c3.744-0.090 7.329-1.617 9.982-4.294l-11.363-11.264c0.283-0.285 0.643-0.429 0.995-0.437l0.386 15.995zM25.675 19.704c2.657-2.68 4.167-6.302 4.168-10.1l-16-0.005c0-0.456 0.183-0.87 0.47-1.16l11.363 11.264zM29.843 9.604c0.001-3.797-1.506-7.42-4.161-10.102l-11.37 11.257c-0.287-0.29-0.469-0.704-0.469-1.16l16 0.005zM25.681-0.498c-2.651-2.678-6.236-4.207-9.98-4.3l-0.396 15.995c-0.352-0.009-0.712-0.152-0.995-0.438l11.37-11.257zM27 4.062c-3.408 0-6.701 1.332-9.148 3.741l11.226 11.401c-0.572 0.563-1.321 0.858-2.077 0.858v-16zM17.852 7.803c-2.451 2.414-3.852 5.714-3.852 9.182h16c0 0.856-0.347 1.652-0.923 2.219l-11.226-11.401zM14 16.985c0 2.423 0.979 4.722 2.68 6.397l11.226-11.401c1.326 1.306 2.094 3.103 2.094 5.004h-16zM16.68 23.381c1.697 1.671 3.973 2.588 6.32 2.588v-16c1.817 0 3.584 0.709 4.906 2.011l-11.226 11.401zM23 25.969c2.347 0 4.623-0.917 6.32-2.588l-11.226-11.401c1.322-1.302 3.089-2.011 4.906-2.011v16zM29.32 23.381c1.701-1.675 2.68-3.974 2.68-6.397h-16c0-1.901 0.768-3.699 2.094-5.004l11.226 11.401zM32 16.985c0 1.026-0.31 2.018-0.875 2.851l-13.239-8.985c-1.224 1.804-1.886 3.939-1.886 6.133h16zM31.125 19.836c-0.564 0.831-1.353 1.461-2.252 1.827l-6.042-14.815c-1.996 0.814-3.722 2.2-4.945 4.003l13.239 8.985zM28.873 21.663c-0.898 0.366-1.88 0.46-2.825 0.275l3.075-15.702c-2.11-0.413-4.297-0.202-6.292 0.611l6.042 14.815zM26.048 21.938c-0.946-0.185-1.832-0.646-2.539-1.342l11.226-11.401c-1.546-1.522-3.501-2.545-5.611-2.959l-3.075 15.702zM23.508 20.596c-0.708-0.697-1.205-1.601-1.408-2.604l15.683-3.168c-0.434-2.149-1.502-4.105-3.050-5.629l-11.226 11.401zM22.101 17.992c-0.203-1.004-0.098-2.042 0.297-2.98l14.748 6.204c0.848-2.017 1.072-4.243 0.638-6.393l-15.683 3.168zM22.398 15.013c0.394-0.936 1.052-1.716 1.872-2.256l8.794 13.367c1.807-1.189 3.234-2.891 4.082-4.907l-14.748-6.204zM24.27 12.757c0.819-0.539 1.769-0.819 2.73-0.819v16c2.148 0 4.258-0.627 6.064-1.814l-8.794-13.367zM27 11.938h-26v16h26v-16zM1 11.938c-2.347 0-4.623 0.917-6.32 2.588l11.226 11.401c-1.322 1.302-3.089 2.011-4.906 2.011v-16zM-5.32 14.526c-1.701 1.675-2.68 3.974-2.68 6.397h16c0 1.901-0.768 3.699-2.094 5.004l-11.226-11.401zM-8 20.923c0 2.423 0.979 4.722 2.68 6.397l11.226-11.401c1.326 1.306 2.094 3.103 2.094 5.004h-16zM-5.32 27.32c1.697 1.671 3.973 2.588 6.32 2.588v-16c1.817 0 3.584 0.709 4.906 2.011l-11.226 11.401zM1 29.908h19.5v-16h-19.5v16zM20.484 29.908c-1.419-0.003-2.804-0.559-3.842-1.586l11.248-11.379c-1.975-1.952-4.63-3.030-7.375-3.035l-0.031 16zM16.642 28.321c-1.043-1.031-1.65-2.454-1.647-3.964l16 0.032c0.006-2.815-1.126-5.492-3.104-7.448l-11.248 11.379zM14.995 24.358c0.003-1.509 0.616-2.93 1.663-3.956l11.203 11.423c1.986-1.948 3.129-4.62 3.134-7.435l-16-0.032zM16.658 20.402c1.043-1.023 2.429-1.574 3.848-1.571l-0.032 16c2.745 0.005 5.404-1.062 7.386-3.006l-11.203-11.423zM20.484 18.831c1.259-0.001 2.494 0.436 3.485 1.26l-10.223 12.308c1.904 1.582 4.296 2.434 6.749 2.433l-0.011-16zM23.97 20.090c0.994 0.826 1.682 1.992 1.909 3.307l-15.766 2.724c0.427 2.474 1.726 4.693 3.634 6.277l10.223-12.308zM25.884 23.424l-0.010-0.059-15.776 2.67 0.010 0.059 15.776-2.67zM25.911 23.609c-0.166-1.208-0.577-2.366-1.201-3.404l-13.709 8.25c-0.488-0.812-0.81-1.717-0.94-2.665l15.851-2.181zM24.71 20.205c-0.625-1.038-1.449-1.933-2.419-2.638l-9.404 12.945c-0.755-0.548-1.398-1.246-1.886-2.057l13.709-8.25zM22.291 17.568c-0.97-0.704-2.066-1.205-3.224-1.479l-3.678 15.572c-0.897-0.212-1.748-0.6-2.503-1.148l9.404-12.945zM19.067 16.089c-1.157-0.273-2.356-0.315-3.529-0.123l2.586 15.79c-0.908 0.149-1.838 0.117-2.734-0.095l3.678-15.572zM15.538 15.966c-1.173 0.192-2.3 0.615-3.315 1.248l8.473 13.572c-0.789 0.492-1.664 0.82-2.572 0.969l-2.586-15.79zM12.223 17.214c-1.015 0.634-1.899 1.467-2.595 2.456l13.089 9.202c-0.543 0.772-1.232 1.421-2.021 1.914l-8.473-13.572zM9.628 19.671c-0.696 0.989-1.187 2.113-1.439 3.306l15.654 3.31c-0.198 0.934-0.583 1.814-1.126 2.586l-13.089-9.202zM8.189 22.976c-0.252 1.193-0.259 2.424-0.019 3.62l15.688-3.146c0.188 0.937 0.183 1.902-0.015 2.837l-15.654-3.31zM8.126 26.358l0.010 0.059 15.776-2.67-0.010-0.059-15.776 2.67zM8.139 26.431c0.502 2.936 2.041 5.575 4.309 7.464l10.237-12.297c0.633 0.527 1.079 1.279 1.225 2.135l-15.771 2.698zM12.447 33.895c2.265 1.886 5.116 2.906 8.044 2.905l-0.003-16c0.787-0 1.565 0.273 2.196 0.798l-10.237 12.297zM20.487 36.8c3.275 0.001 6.441-1.276 8.796-3.59l-11.213-11.414c0.664-0.652 1.538-0.997 2.424-0.997l-0.007 16zM29.283 33.21c2.36-2.318 3.711-5.49 3.717-8.827l-16-0.029c0.002-0.984 0.401-1.902 1.070-2.558l11.213 11.414zM33 24.369c0-2.576-0.797-4.981-2.142-6.96l-13.231 8.996c-0.389-0.573-0.626-1.284-0.626-2.037h16zM24.242 29.908h2.758v-16h-2.758v16zM27 29.908c3.408 0 6.701-1.332 9.148-3.741l-11.226-11.401c0.572-0.563 1.321-0.858 2.077-0.858v16zM36.148 26.166c2.451-2.414 3.852-5.714 3.852-9.182h-16c0-0.856 0.347-1.652 0.923-2.219l11.226 11.401zM40 16.985c0-3.468-1.4-6.768-3.852-9.182l-11.226 11.401c-0.576-0.567-0.923-1.363-0.923-2.219h16zM36.148 7.803c-2.447-2.41-5.74-3.741-9.148-3.741v16c-0.756 0-1.505-0.295-2.077-0.858l11.226-11.401z"></path>
</symbol>
  </defs>
</svg>

